<svg xmlns="http://www.w3.org/2000/svg" width="62" height="62" viewBox="0 0 62 62">
  <g id="그룹_855" data-name="그룹 855" transform="translate(-387 -112)">
    <g id="그룹_818" data-name="그룹 818" transform="translate(-747 -866)">
      <g id="사각형_890" data-name="사각형 890" transform="translate(1134 978)" fill="#fff1e2" stroke="#f5e7d4" stroke-width="1.3">
        <rect width="62" height="62" rx="16" stroke="none"/>
        <rect x="0.65" y="0.65" width="60.7" height="60.7" rx="15.35" fill="none"/>
      </g>
      <g id="그룹_656" data-name="그룹 656" transform="translate(642.421 873.033)">
        <path id="패스_284" data-name="패스 284" d="M508.719,153.063c13.332-.128,25.876-1.257,29.519-1.612a1.179,1.179,0,0,0,1.071-1.168c.058-10.134-1.879-25.641-2.422-29.779a1.184,1.184,0,0,0-1.192-1.03c-5.939.064-22.957.007-27.461-.01a1.183,1.183,0,0,0-1.19,1.1,181.8,181.8,0,0,0-.118,23.864l.592,7.532A1.2,1.2,0,0,0,508.719,153.063Z" transform="translate(0 0)" fill="#c69c79"/>
        <path id="패스_285" data-name="패스 285" d="M508.719,153.063c13.332-.128,25.876-1.257,29.519-1.612a1.179,1.179,0,0,0,1.071-1.168c.058-10.134-1.879-25.641-2.422-29.779a1.184,1.184,0,0,0-1.192-1.03c-5.939.064-22.957.007-27.461-.01a1.183,1.183,0,0,0-1.19,1.1,181.8,181.8,0,0,0-.118,23.864l.592,7.532A1.2,1.2,0,0,0,508.719,153.063Z" transform="translate(0 0)" fill="none" stroke="#b58c6d" stroke-miterlimit="10" stroke-width="1"/>
        <path id="패스_286" data-name="패스 286" d="M534.6,147.63a.894.894,0,0,1-.848.893c-3.874.223-18.912,1.195-22.663,1.429a.9.9,0,0,1-.96-.793c-.234-1.831-.4-3.852-.525-5.95-.435-7.882-.179-16.712-.078-19.414a.9.9,0,0,1,.86-.882c5.08-.3,10.025-.48,14.078-.6,4.12-.112,7.3-.167,8.686-.19a.9.9,0,0,1,.9.759C534.859,127.836,534.669,143.767,534.6,147.63Z" transform="translate(0.324 0.309)" fill="azure"/>
        <path id="패스_287" data-name="패스 287" d="M534.576,147.63a.894.894,0,0,1-.848.893c-3.874.223-18.912,1.195-22.663,1.429a.9.9,0,0,1-.96-.793c-.234-1.831-.4-3.852-.525-5.95l14.859-20.9c4.12-.112,7.3-.167,8.686-.19a.9.9,0,0,1,.9.759C534.833,127.836,534.643,143.767,534.576,147.63Z" transform="translate(0.349 0.309)" fill="#e1f8f8"/>
        <path id="패스_288" data-name="패스 288" d="M528.366,134.036s-.851.161-1.023-2.125c0,0-.513-3.95.089-6.126,0,0,.343-.995,1.211-1.011,0,0,1.652-.352.914,7.77C529.558,132.544,529.5,133.933,528.366,134.036Z" transform="translate(2.393 0.618)" fill="#fffff4"/>
        <path id="패스_289" data-name="패스 289" d="M527.58,136.985a1.4,1.4,0,0,1,.689-1.768,1.2,1.2,0,0,1,1.5.884,1.23,1.23,0,0,1-.8,1.513A1.286,1.286,0,0,1,527.58,136.985Z" transform="translate(2.434 1.83)" fill="#fffff4"/>
      </g>
    </g>
  </g>
</svg>
