<svg xmlns="http://www.w3.org/2000/svg" width="62" height="62" viewBox="0 0 62 62">
  <g id="그룹_844" data-name="그룹 844" transform="translate(-28 -30)">
    <g id="그룹_820" data-name="그룹 820">
      <g id="패스_276" data-name="패스 276" transform="translate(28 30)" fill="#fff">
        <path d="M 42 61.34999847412109 L 20 61.34999847412109 C 17.38747978210449 61.34999847412109 14.85344982147217 60.83848190307617 12.46829986572266 59.82965087890625 C 10.16419982910156 58.8550910949707 8.094759941101074 57.45980072021484 6.317480087280273 55.68252182006836 C 4.540200233459473 53.90523910522461 3.144910097122192 51.83580017089844 2.170350074768066 49.53170013427734 C 1.161520004272461 47.14654922485352 0.6499999761581421 44.61251831054688 0.6499999761581421 42 L 0.6499999761581421 20 C 0.6499999761581421 17.38747978210449 1.161520004272461 14.85344982147217 2.170350074768066 12.46829986572266 C 3.144910097122192 10.16419982910156 4.540200233459473 8.094759941101074 6.317480087280273 6.317480087280273 C 8.094759941101074 4.540200233459473 10.16419982910156 3.144910097122192 12.46829986572266 2.170350074768066 C 14.85344982147217 1.161520004272461 17.38747978210449 0.6499999761581421 20 0.6499999761581421 L 42 0.6499999761581421 C 44.61251831054688 0.6499999761581421 47.14654922485352 1.161520004272461 49.53170013427734 2.170350074768066 C 51.83580017089844 3.144910097122192 53.90523910522461 4.540200233459473 55.68252182006836 6.317480087280273 C 57.45980072021484 8.094759941101074 58.8550910949707 10.16419982910156 59.82965087890625 12.46829986572266 C 60.83848190307617 14.85344982147217 61.34999847412109 17.38747978210449 61.34999847412109 20 L 61.34999847412109 42 C 61.34999847412109 44.61251831054688 60.83848190307617 47.14654922485352 59.82965087890625 49.53170013427734 C 58.8550910949707 51.83580017089844 57.45980072021484 53.90523910522461 55.68252182006836 55.68252182006836 C 53.90523910522461 57.45980072021484 51.83580017089844 58.8550910949707 49.53170013427734 59.82965087890625 C 47.14654922485352 60.83848190307617 44.61251831054688 61.34999847412109 42 61.34999847412109 Z" stroke="none"/>
        <path d="M 20 1.299999237060547 C 15.00505065917969 1.299999237060547 10.30905914306641 3.245140075683594 6.777099609375 6.777099609375 C 3.245140075683594 10.30905914306641 1.299999237060547 15.00505065917969 1.299999237060547 20 L 1.299999237060547 42 C 1.299999237060547 46.99494934082031 3.245140075683594 51.69094085693359 6.777099609375 55.222900390625 C 10.30905914306641 58.75485992431641 15.00505065917969 60.70000076293945 20 60.70000076293945 L 42 60.70000076293945 C 46.99494934082031 60.70000076293945 51.69094085693359 58.75485992431641 55.222900390625 55.222900390625 C 58.75485992431641 51.69094085693359 60.70000076293945 46.99494934082031 60.70000076293945 42 L 60.70000076293945 20 C 60.70000076293945 15.00505065917969 58.75485992431641 10.30905914306641 55.222900390625 6.777099609375 C 51.69094085693359 3.245140075683594 46.99494934082031 1.299999237060547 42 1.299999237060547 L 20 1.299999237060547 M 20 0 L 42 0 C 53.04570007324219 0 62 8.954299926757812 62 20 L 62 42 C 62 53.04570007324219 53.04570007324219 62 42 62 L 20 62 C 8.954299926757812 62 0 53.04570007324219 0 42 L 0 20 C 0 8.954299926757812 8.954299926757812 0 20 0 Z" stroke="none" fill="#f0f0f0"/>
      </g>
      <g id="그룹_646" data-name="그룹 646" transform="translate(-350.079 -8.267)">
        <path id="패스_249" data-name="패스 249" d="M405.946,72.7A56.227,56.227,0,0,0,400.2,58.67a2.005,2.005,0,0,0-2.249-.936l-.029.009a1.906,1.906,0,0,0-1.1.9c-2.328,4.162-3.833,12.566-4.369,15.963a.91.91,0,0,0,1.212.994c.637-.228,1.385-.517,2.021-.818a.9.9,0,0,0,.491-.665l.563-3.359a1,1,0,0,1,.586-.754c.558-.246,1.487-.639,2.25-.89a1,1,0,0,1,1.249.594c.391,1.022,1.062,2.813,1.549,4.3a.974.974,0,0,0,1.323.59l1.5-.664A1.064,1.064,0,0,0,405.946,72.7Zm-6.153-6.546-1.764.526a.392.392,0,0,1-.5-.452c.187-.965.451-1.956.649-2.642a.389.389,0,0,1,.717-.075c.4.74.861,1.591,1.128,2.087A.388.388,0,0,1,399.793,66.152Z" fill="#ff7957" stroke="#ff6359" stroke-miterlimit="10" stroke-width="1"/>
      </g>
      <path id="패스_250" data-name="패스 250" d="M405.658,58.74a19.142,19.142,0,0,1,2.472-.717.554.554,0,0,1,.657.42c.38,1.73,1.319,7.8,1.955,10.553a.177.177,0,0,0,.268.124l1.973-1.2a.388.388,0,0,1,.559.171,10.6,10.6,0,0,1,.716,2.095.373.373,0,0,1-.159.385A16.307,16.307,0,0,1,408.74,73a.166.166,0,0,1-.191-.115,127.294,127.294,0,0,1-3.258-13.529A.559.559,0,0,1,405.658,58.74Z" transform="translate(-350.079 -8.267)" fill="#ff7957" stroke="#ff6359" stroke-miterlimit="10" stroke-width="1"/>
      <path id="패스_251" data-name="패스 251" d="M413.563,55.995a19.3,19.3,0,0,1,2.472-.717.555.555,0,0,1,.658.421c.379,1.729,1.319,7.8,1.954,10.552a.177.177,0,0,0,.268.124l1.973-1.2a.389.389,0,0,1,.559.172,10.574,10.574,0,0,1,.716,2.1.372.372,0,0,1-.159.384,16.286,16.286,0,0,1-5.359,2.43.166.166,0,0,1-.191-.115A127.289,127.289,0,0,1,413.2,56.613.559.559,0,0,1,413.563,55.995Z" transform="translate(-350.079 -8.267)" fill="#ff7957" stroke="#ff6359" stroke-miterlimit="10" stroke-width="1"/>
      <path id="패스_252" data-name="패스 252" d="M392.561,80.679c4.353-1.2,26.82-7.367,33.166-8.981a.654.654,0,0,1,.8.487c.106.44.249,1.077.391,1.824a.661.661,0,0,1-.464.765c-4.073,1.155-28.583,8.089-32.772,9.02a.656.656,0,0,1-.743-.384l-.8-1.826A.658.658,0,0,1,392.561,80.679Z" transform="translate(-350.079 -8.267)" fill="#ff7957" stroke="#ff6359" stroke-miterlimit="10" stroke-width="1"/>
      <path id="패스_253" data-name="패스 253" d="M397.378,84.784c3.7-1.192,22.782-7.339,28.177-8.964a.563.563,0,0,1,.707.389c.108.374.255.916.4,1.553a.57.57,0,0,1-.371.676c-3.458,1.145-24.27,8.025-27.837,8.982a.561.561,0,0,1-.652-.3l-.76-1.54A.567.567,0,0,1,397.378,84.784Z" transform="translate(-350.079 -8.267)" fill="#ff7957" stroke="#ff6359" stroke-miterlimit="10" stroke-width="1"/>
    </g>
  </g>
</svg>
