<svg xmlns="http://www.w3.org/2000/svg" width="62" height="62" viewBox="0 0 62 62">
  <g id="그룹_863" data-name="그룹 863" transform="translate(-671 -112)">
    <g id="그룹_843" data-name="그룹 843">
      <g id="그룹_817" data-name="그룹 817" transform="translate(-747 -866)">
        <g id="사각형_886" data-name="사각형 886" transform="translate(1418 978)" fill="#ffeee0" stroke="#ffe8d9" stroke-width="1.3">
          <rect width="62" height="62" rx="16" stroke="none"/>
          <rect x="0.65" y="0.65" width="60.7" height="60.7" rx="15.35" fill="none"/>
        </g>
        <g id="그룹_677" data-name="그룹 677" transform="translate(679.259 906.688)">
          <path id="패스_319" data-name="패스 319" d="M771.306,103.182l-5.228-15.625a.358.358,0,0,0-.456-.225l-.894.309a.358.358,0,0,0-.228.436c.5,1.764,2.931,10.335,4.632,16.147Z" fill="#d79870"/>
          <path id="패스_320" data-name="패스 320" d="M775.92,103.343s.521,1.015,2.527,1.2a7.1,7.1,0,0,0,6-2.457,3.473,3.473,0,0,0,1.032-2.739Z" fill="#ffd6ca"/>
          <path id="패스_321" data-name="패스 321" d="M769.007,104.15l5.324,15.592a.359.359,0,0,0,.458.222l.892-.315a.357.357,0,0,0,.225-.437c-.511-1.761-2.995-10.317-4.731-16.118Z" fill="#d79870"/>
          <path id="패스_322" data-name="패스 322" d="M764.98,107.835a8.431,8.431,0,0,0,7.02.463s3.482-1.481,4.66-4.5l-.487-1.608-7.979,1.987-4.453,1.352A10.462,10.462,0,0,0,764.98,107.835Z" fill="#ff6236"/>
          <path id="패스_323" data-name="패스 323" d="M755.355,109.729a4.3,4.3,0,0,0,3.564,1.8,6.44,6.44,0,0,0,3.366-.793c1.115-.6,2.444-1.589,2.629-3.011Z" fill="#ffd6ca"/>
          <path id="패스_324" data-name="패스 324" d="M785.487,99.083c-2.763-8.556-9.275-10.408-14.01-10.531a16.848,16.848,0,0,0-10.329,3.155c-7.683,5.593-6.6,14.567-5.956,17.62a1.043,1.043,0,0,0,1.288.795c3.844-.994,17.709-4.761,28.587-10.053A.823.823,0,0,0,785.487,99.083Z" fill="#00c9ff"/>
          <path id="패스_325" data-name="패스 325" d="M785.483,99.078a.826.826,0,0,1-.419.988,146.725,146.725,0,0,1-20.15,7.66c-3.841,1.183-6.923,2.007-8.44,2.4a1.04,1.04,0,0,1-1.284-.8c-.64-3.051-1.724-12.025,5.954-17.617a16.014,16.014,0,0,1,4.873-2.408,16.84,16.84,0,0,1,5.459-.754C776.215,88.679,782.718,90.532,785.483,99.078Z" fill="#ff7245"/>
          <path id="패스_326" data-name="패스 326" d="M785.483,99.079a.823.823,0,0,1-.42.987c-2.691,1.311-5.561,2.524-8.421,3.63-4.142,1.6-8.25,2.96-11.728,4.03-3.841,1.183-6.923,2.007-8.44,2.4a1.04,1.04,0,0,1-1.284-.8c-.64-3.051-1.724-12.025,5.954-17.617a16.014,16.014,0,0,1,4.873-2.408,16.84,16.84,0,0,1,5.459-.754C776.215,88.679,782.718,90.533,785.483,99.079Z" fill="#ff7245"/>
          <path id="패스_327" data-name="패스 327" d="M764.914,107.726c-3.841,1.183-6.923,2.007-8.44,2.4a1.04,1.04,0,0,1-1.284-.8c-.64-3.051-1.724-12.025,5.954-17.617a16.014,16.014,0,0,1,4.873-2.408C759.411,99.33,764.914,107.726,764.914,107.726Z" fill="#ffe2ce"/>
          <path id="패스_328" data-name="패스 328" d="M785.06,100.068c-2.69,1.31-5.559,2.522-8.418,3.628-3.5-11.637-10.625-14.394-10.625-14.394a16.84,16.84,0,0,1,5.459-.754c4.738.131,11.24,1.984,14.006,10.527A.83.83,0,0,1,785.06,100.068Z" fill="#ffe2ce"/>
        </g>
        <g id="패스_329" data-name="패스 329" transform="translate(679.259 906.688)" fill="none" stroke-linecap="round" stroke-linejoin="round">
          <path d="M758.919,111.53a7.08,7.08,0,0,0,3.366-.793c1.105-.589,2.417-1.573,2.621-2.975a.5.5,0,0,0,.074.073,8.635,8.635,0,0,0,5.59.891l3.761,11.016a.359.359,0,0,0,.458.222l.892-.315a.357.357,0,0,0,.225-.437c-.379-1.305-1.841-6.345-3.28-11.228a9.041,9.041,0,0,0,3.959-4.014,4.121,4.121,0,0,0,1.862.577,7.1,7.1,0,0,0,6-2.457,3.615,3.615,0,0,0,1.033-2.539.8.8,0,0,0,0-.468c-2.206-6.829-6.8-9.382-10.97-10.2-.075-.014-.151-.034-.226-.048-.57-.1-1.129-.172-1.674-.219-.077-.007-.157-.018-.233-.023q-.463-.035-.908-.046a17.136,17.136,0,0,0-3.329.254q-.778.132-1.54.334l-.529-1.579a.358.358,0,0,0-.456-.225l-.894.309a.358.358,0,0,0-.228.436c.091.321.248.872.45,1.586-.495.188-.984.393-1.459.629-.287.141-.565.3-.843.461-.117.067-.239.125-.355.194q-.588.355-1.149.763a15.13,15.13,0,0,0-4.257,4.679v0c-.2.342-.368.688-.534,1.035-.037.078-.084.154-.119.232-.146.32-.267.641-.388.961-.039.106-.09.211-.127.317a20.018,20.018,0,0,0-.529,10.391,1.057,1.057,0,0,0,.178.4A4.314,4.314,0,0,0,758.919,111.53Z" stroke="none"/>
          <path d="M 774.6702880859375 119.9843368530273 C 774.7096557617188 119.9843368530273 774.7496948242188 119.9777984619141 774.7890014648438 119.963996887207 L 775.6810302734375 119.6490020751953 C 775.8599853515625 119.5859985351562 775.958984375 119.3949966430664 775.906005859375 119.2119979858398 C 775.5269775390625 117.9069976806641 774.0650024414062 112.8669967651367 772.6259765625 107.984001159668 C 773.655029296875 107.4209976196289 775.6790161132812 106.088996887207 776.5850219726562 103.9700012207031 C 776.9739990234375 104.2169952392578 777.5590209960938 104.4629974365234 778.447021484375 104.5469970703125 C 780.711669921875 104.7589569091797 782.969970703125 103.8159942626953 784.4500122070312 102.0899963378906 C 785.0880126953125 101.3440017700195 785.5540161132812 100.4619979858398 785.4829711914062 99.55099487304688 C 785.5260009765625 99.40000152587891 785.5369873046875 99.23999786376953 785.4869995117188 99.08300018310547 C 783.281005859375 92.25399780273438 778.6890258789062 89.70099639892578 774.5170288085938 88.88399505615234 C 774.4420166015625 88.8699951171875 774.3660278320312 88.84999847412109 774.291015625 88.83599853515625 C 773.7210083007812 88.73200225830078 773.1619873046875 88.66400146484375 772.6170043945312 88.61699676513672 C 772.5399780273438 88.61000061035156 772.4600219726562 88.5989990234375 772.3839721679688 88.59400177001953 C 772.0750122070312 88.57099914550781 771.77197265625 88.55599975585938 771.4760131835938 88.54799652099609 C 770.3553466796875 88.52101898193359 769.2420654296875 88.61299133300781 768.14697265625 88.802001953125 C 767.6279907226562 88.88999938964844 767.114990234375 89.00099945068359 766.6069946289062 89.13600158691406 L 766.0780029296875 87.55699920654297 C 766.0149536132812 87.36797332763672 765.8099975585938 87.26701354980469 765.6220092773438 87.33200073242188 L 764.72802734375 87.64099884033203 C 764.5479736328125 87.70301055908203 764.448974609375 87.89399719238281 764.5 88.07701110839844 C 764.5910034179688 88.39799499511719 764.7479858398438 88.94899749755859 764.9500122070312 89.66300201416016 C 764.4550170898438 89.85099792480469 763.9660034179688 90.05599975585938 763.4910278320312 90.29199981689453 C 763.2039794921875 90.43299865722656 762.926025390625 90.59400177001953 762.6480102539062 90.75299835205078 C 762.531005859375 90.81999969482422 762.4089965820312 90.87799835205078 762.2930297851562 90.94699859619141 C 761.9010009765625 91.18399810791016 761.5170288085938 91.43901062011719 761.1439819335938 91.70999908447266 C 759.2260131835938 93.10700225830078 757.85498046875 94.71499633789062 756.8870239257812 96.38899993896484 L 756.885986328125 96.39099884033203 C 756.68798828125 96.73300170898438 756.5180053710938 97.07899475097656 756.3519897460938 97.42599487304688 C 756.3150024414062 97.50399780273438 756.2680053710938 97.58000183105469 756.2329711914062 97.65799713134766 C 756.0869750976562 97.97799682617188 755.9660034179688 98.29901123046875 755.844970703125 98.61899566650391 C 755.8060302734375 98.72499847412109 755.7550048828125 98.83000183105469 755.718017578125 98.93599700927734 C 754.2169799804688 103.1989974975586 754.7899780273438 107.4199981689453 755.1890258789062 109.3270111083984 C 755.2210083007812 109.4769973754883 755.2839965820312 109.6110000610352 755.3670043945312 109.7259979248047 C 755.3670043945312 109.7259979248047 756.4879760742188 111.5210113525391 758.9190063476562 111.5299987792969 C 758.9306030273438 111.5300445556641 758.9421997070312 111.5300750732422 758.9537353515625 111.5300750732422 C 760.1129760742188 111.5300750732422 761.26123046875 111.2815628051758 762.2849731445312 110.7369995117188 C 763.3900146484375 110.1479949951172 764.7020263671875 109.1640014648438 764.906005859375 107.7620010375977 C 764.9299926757812 107.7859954833984 764.958984375 107.8239974975586 764.97998046875 107.8349990844727 C 764.97998046875 107.8350067138672 767.4854125976562 109.3299560546875 770.5700073242188 108.7259979248047 L 774.3309936523438 119.7419967651367 C 774.3823852539062 119.8906860351562 774.5214233398438 119.9843368530273 774.6702880859375 119.9843368530273 M 774.6702880859375 120.9843368530273 C 774.0913696289062 120.9843368530273 773.5752563476562 120.6164016723633 773.3859252929688 120.0687713623047 L 769.8909912109375 109.8321685791016 C 769.6199951171875 109.8571472167969 769.3466796875 109.8697280883789 769.0729370117188 109.8697280883789 C 767.5697631835938 109.8697280883789 766.2944946289062 109.4940414428711 765.4692993164062 109.1670761108398 C 764.9609375 110.0999374389648 764.04296875 110.9331588745117 762.75537109375 111.6194686889648 C 761.6351318359375 112.21533203125 760.3208618164062 112.5300674438477 758.9537963867188 112.5300674438477 L 758.9146728515625 112.5299911499023 C 756.1354370117188 112.5197143554688 754.7412719726562 110.59033203125 754.5419921875 110.2913589477539 C 754.38037109375 110.0619964599609 754.26904296875 109.8078460693359 754.2109985351562 109.5355377197266 C 753.753173828125 107.3474960327148 753.2186889648438 103.0232086181641 754.7747802734375 98.6038818359375 C 754.80419921875 98.51963806152344 754.8361206054688 98.4439697265625 754.8642578125 98.377197265625 C 754.8807983398438 98.33808135986328 754.8964233398438 98.30111694335938 754.9063110351562 98.274169921875 C 754.9074096679688 98.27117919921875 754.9085083007812 98.2681884765625 754.90966796875 98.26519775390625 L 754.916015625 98.24829864501953 C 755.0386352539062 97.92411041259766 755.1654052734375 97.58892822265625 755.3222045898438 97.24510955810547 C 755.3555297851562 97.17121887207031 755.389404296875 97.10845184326172 755.4166870117188 97.05789184570312 C 755.427490234375 97.03781127929688 755.4387817382812 97.01793670654297 755.4484252929688 96.99759674072266 C 755.6069946289062 96.66613006591797 755.79296875 96.28411102294922 756.0149536132812 95.89968872070312 C 756.01708984375 95.89582824707031 756.0192260742188 95.89204406738281 756.0213012695312 95.888427734375 C 757.1378173828125 93.95755004882812 758.6632080078125 92.27976989746094 760.5552368164062 90.90168762207031 C 760.9510498046875 90.61412811279297 761.361328125 90.34170532226562 761.7756958007812 90.09123229980469 C 761.7776489257812 90.09001922607422 761.7796630859375 90.08880615234375 761.78173828125 90.08760833740234 C 761.8673706054688 90.03665161132812 761.948974609375 89.99356842041016 762.02099609375 89.95556640625 C 762.0645751953125 89.93254852294922 762.1082763671875 89.90970611572266 762.1510620117188 89.88520812988281 L 762.213623046875 89.84939575195312 C 762.4803466796875 89.69671630859375 762.7561645507812 89.53884887695312 763.0501098632812 89.39443969726562 C 763.2686157226562 89.28587341308594 763.4988403320312 89.17911529541016 763.7433471679688 89.07303619384766 C 763.7083740234375 88.94986724853516 763.6760864257812 88.83634185791016 763.6467895507812 88.73313140869141 L 763.5379028320312 88.34978485107422 C 763.3439331054688 87.65387725830078 763.72412109375 86.92908477783203 764.4024047851562 86.69549560546875 L 765.2953491210938 86.38687133789062 C 765.4385375976562 86.33737945556641 765.5877075195312 86.31227874755859 765.7388305664062 86.31227874755859 C 766.3240356445312 86.31227874755859 766.8416137695312 86.6854248046875 767.0267333984375 87.24080657958984 L 767.2649536132812 87.95195770263672 C 767.502197265625 87.90196228027344 767.740966796875 87.8565673828125 767.9797973632812 87.81607055664062 C 769.16748046875 87.61107635498047 770.3538208007812 87.52070617675781 771.5000610351562 87.54828643798828 C 771.8193969726562 87.55691528320312 772.1392211914062 87.57308197021484 772.4537353515625 87.59642791748047 C 772.5197143554688 87.60087585449219 772.5800170898438 87.60749816894531 772.6333618164062 87.61335754394531 C 772.658203125 87.6160888671875 772.6830444335938 87.61888122558594 772.70751953125 87.62110137939453 C 773.339111328125 87.67555999755859 773.9172973632812 87.75129699707031 774.4705200195312 87.85224151611328 C 774.5239868164062 87.86220550537109 774.5738525390625 87.87320709228516 774.6237182617188 87.88442230224609 C 774.6493530273438 87.89020538330078 774.6749877929688 87.89620971679688 774.7005004882812 87.90097808837891 C 774.7034301757812 87.90151977539062 774.706298828125 87.90206909179688 774.709228515625 87.90264129638672 C 777.2711791992188 88.40435028076172 779.5132446289062 89.43148040771484 781.3731079101562 90.95552062988281 C 783.6646728515625 92.83332061767578 785.3689575195312 95.46437835693359 786.4385986328125 98.77561187744141 C 786.5272827148438 99.05422973632812 786.5437622070312 99.34300994873047 786.4886474609375 99.63863372802734 C 786.5167846679688 100.657600402832 786.0770874023438 101.7260971069336 785.2099609375 102.7399597167969 C 783.6638793945312 104.54296875 781.4296875 105.5764770507812 779.0792846679688 105.5764770507812 C 778.8377075195312 105.5764770507812 778.5936279296875 105.5651016235352 778.3538208007812 105.5426483154297 C 777.877685546875 105.4976043701172 777.4370727539062 105.4081726074219 777.0350952148438 105.2753524780273 C 776.141357421875 106.751708984375 774.8286743164062 107.7969284057617 773.8050537109375 108.4480590820312 C 775.0752563476562 112.764778137207 776.3014526367188 116.987678527832 776.7792358398438 118.6332550048828 L 776.8663330078125 118.9330749511719 C 777.0665893554688 119.6249160766602 776.6917114257812 120.3533477783203 776.0130615234375 120.5922622680664 L 775.1219482421875 120.9069366455078 C 774.97509765625 120.95849609375 774.82373046875 120.9843368530273 774.6702880859375 120.9843368530273 Z" stroke="none" fill="#ffceb9"/>
        </g>
      </g>
    </g>
  </g>
</svg>
