<svg xmlns="http://www.w3.org/2000/svg" width="62" height="62" viewBox="0 0 62 62">
  <g id="그룹_861" data-name="그룹 861" transform="translate(-600 -112)">
    <g id="그룹_816" data-name="그룹 816" transform="translate(-747 -866)">
      <g id="사각형_885" data-name="사각형 885" transform="translate(1347 978)" fill="#d6fcff" stroke="#c3f3f5" stroke-width="1.3">
        <rect width="62" height="62" rx="16" stroke="none"/>
        <rect x="0.65" y="0.65" width="60.7" height="60.7" rx="15.35" fill="none"/>
      </g>
      <path id="패스_310" data-name="패스 310" d="M703.164,105.272a61.242,61.242,0,0,1-.177-7.3,7.161,7.161,0,0,1,3.986-6.2,15.6,15.6,0,0,1,4.91-.934s10.46-.262,15.563.074a6.68,6.68,0,0,1,6.216,6.757,67.43,67.43,0,0,1-.3,7.6Z" transform="translate(659.279 907.256)" fill="#ffbdb3"/>
      <path id="패스_311" data-name="패스 311" d="M733.543,103.511a13.735,13.735,0,0,1-.18,1.76h-30.2a62.132,62.132,0,0,1-.171-7.3,7.13,7.13,0,0,1,3.984-6.2,15.528,15.528,0,0,1,4.91-.937s4.466-.113,8.989-.094c2.394.009,4.807.057,6.576.17a6.688,6.688,0,0,1,6.217,6.756S733.684,101.145,733.543,103.511Z" transform="translate(659.279 907.256)" fill="#009eff"/>
      <path id="패스_312" data-name="패스 312" d="M733.543,103.511l-1.666,1.76H716.729l4.144-14.524c2.394.009,4.807.057,6.576.17a6.688,6.688,0,0,1,6.217,6.756S733.684,101.145,733.543,103.511Z" transform="translate(659.279 907.256)" fill="#004eff" opacity="0.12"/>
      <path id="패스_313" data-name="패스 313" d="M703.744,110.1s.476,2.975.833,4.559a1.053,1.053,0,0,0,.985.818l.154,0a1.057,1.057,0,0,0,1.064-.98l.331-4.4Z" transform="translate(659.279 907.256)" fill="#383737"/>
      <path id="패스_314" data-name="패스 314" d="M729.458,109.763s.476,2.976.833,4.56a1.05,1.05,0,0,0,.985.817l.154,0a1.055,1.055,0,0,0,1.063-.98l.332-4.4Z" transform="translate(659.279 907.256)" fill="#383737"/>
      <path id="패스_315" data-name="패스 315" d="M697.73,98.347a2.89,2.89,0,0,1,.9-2.111,2.932,2.932,0,0,1,1.954-.728s2.527.063,2.59,2.211c0,0,.3,4.674.322,7.461a.942.942,0,0,0,.879.941,177.356,177.356,0,0,0,27.865-.391.965.965,0,0,0,.863-1.028,41.8,41.8,0,0,1,.035-7.291s.543-2.347,2.69-2.221c0,0,3.226-.44,3.037,4.424,0,0,.345,6.476-2.168,9.44a3.612,3.612,0,0,1-2.415,1.21c-4.261.422-21.436,1.963-32.75.616a3.923,3.923,0,0,1-3.474-3.781V107S697.657,102.693,697.73,98.347Z" transform="translate(659.279 907.256)" fill="#00d0ff"/>
      <path id="패스_316" data-name="패스 316" d="M703.078,104.464v-.045a2.9,2.9,0,0,1,2.428-2.911,44.445,44.445,0,0,1,6.239-.353,28.7,28.7,0,0,1,5.08.481,3.028,3.028,0,0,1,2.373,3.2c-.016.2-.035.411-.058.625a1.958,1.958,0,0,1-1.439,1.694,17.1,17.1,0,0,1-4.6.322h-.073a39.207,39.207,0,0,1-7.757-.376A2.754,2.754,0,0,1,703.078,104.464Z" transform="translate(659.279 907.256)" fill="#00baff"/>
      <path id="패스_317" data-name="패스 317" d="M718.817,102.474a1.326,1.326,0,0,1,.325-.339c.518-.371,2.041-1.067,5.46-1.173,0,0,6.744-.337,8.842.977a1.124,1.124,0,0,1,.393.454,4.044,4.044,0,0,1,0,3.6,1.182,1.182,0,0,1-.573.571,11.679,11.679,0,0,1-4.813.956s-6.771.3-9.314-.767a1.379,1.379,0,0,1-.827-1.024A4.492,4.492,0,0,1,718.817,102.474Z" transform="translate(659.279 907.256)" fill="#00baff"/>
      <path id="패스_318" data-name="패스 318" d="M738.867,99.614c.189-4.864-3.037-4.424-3.037-4.424a2.42,2.42,0,0,0-2.3,1.3,7.632,7.632,0,0,0-.416-1.456,6.711,6.711,0,0,0-5.667-4.115c-2.16-.142-5.278-.177-8.157-.171H718.8c-3.723.013-6.921.094-6.921.094a19.541,19.541,0,0,0-2.731.317,9.86,9.86,0,0,0-2.18.618,6.461,6.461,0,0,0-1.6,1.056,7.206,7.206,0,0,0-2.169,3.728c-.046.191-.092.382-.123.578-.457-1.573-2.5-1.63-2.5-1.63a2.932,2.932,0,0,0-1.954.728,2.89,2.89,0,0,0-.9,2.111c-.073,4.346.33,8.658.33,8.658v.094a3.922,3.922,0,0,0,3.474,3.781c.767.091,1.563.168,2.378.234.171,1.011.441,2.552.665,3.545a1.053,1.053,0,0,0,.985.818l.154,0a1.057,1.057,0,0,0,1.064-.98l.24-3.194a196.959,196.959,0,0,0,22.589-.63c.169,1.007.45,2.617.682,3.646a1.05,1.05,0,0,0,.985.817l.154,0a1.055,1.055,0,0,0,1.063-.98l.283-3.756c.6-.056,1.112-.1,1.508-.144a3.612,3.612,0,0,0,2.415-1.21C739.212,106.09,738.867,99.614,738.867,99.614Zm-20.139,6.863" transform="translate(659.279 907.256)" fill="none" stroke="#00c9ff" stroke-linecap="round" stroke-linejoin="round" stroke-width="1"/>
    </g>
  </g>
</svg>
