<svg xmlns="http://www.w3.org/2000/svg" width="62" height="62" viewBox="0 0 62 62">
  <g id="그룹_850" data-name="그룹 850" transform="translate(-245 -30)">
    <g id="그룹_823" data-name="그룹 823">
      <g id="그룹_783" data-name="그룹 783" transform="translate(13 -234)">
        <g id="그룹_630" data-name="그룹 630" transform="translate(231.723 264)">
          <g id="사각형_460" data-name="사각형 460" transform="translate(0.277)" fill="#fff" stroke="#f0f0f0" stroke-width="1.3">
            <rect width="62" height="62" rx="16" stroke="none"/>
            <rect x="0.65" y="0.65" width="60.7" height="60.7" rx="15.35" fill="none"/>
          </g>
        </g>
        <g id="그룹_640" data-name="그룹 640" transform="translate(245.423 278.7)">
          <path id="패스_239" data-name="패스 239" d="M679.445,88a13.429,13.429,0,0,1-4.98,6.7c-4.425,3.038-9.867,2.827-14.028,1.928a31.291,31.291,0,0,1-5.4-1.664,14.436,14.436,0,0,1-2.1-1.1c-8.057-5.138-8.612-12.258-8.071-16.511a13.356,13.356,0,0,1,2.3-5.918c6.829-9.748,16.445-8.322,20.685-7.08a17.781,17.781,0,0,1,2.14.766C683.17,71.712,681.255,82.808,679.445,88Z" transform="translate(-644.715 -63.47)" fill="#0095ff" stroke="#55b4f7" stroke-miterlimit="10" stroke-width="1"/>
          <g id="그룹_638" data-name="그룹 638" transform="translate(15.723 0.885)" opacity="0.056">
            <path id="패스_240" data-name="패스 240" d="M675.625,87.784a13.429,13.429,0,0,1-4.98,6.7c-4.425,3.038-9.867,2.827-14.028,1.928l1.413-6.182.621-2.695.74-3.183,1.175-5.125.779-3.381,1.136-4.953,1.545-6.75a17.783,17.783,0,0,1,2.14.766C679.35,71.5,677.435,82.593,675.625,87.784Z" transform="translate(-656.618 -64.14)" fill="#000f62"/>
          </g>
          <g id="그룹_639" data-name="그룹 639" transform="translate(11.581 7.314)">
            <path id="패스_241" data-name="패스 241" d="M666.593,71.217a6.242,6.242,0,0,0-3.1-1.889c-2.074-.581-5.072-.476-9.418,1.2a.941.941,0,0,0-.581.977c.172,1.453,1.03,8.863,1.995,16.709a.871.871,0,0,0,.344.621.929.929,0,0,0,.568.2c.04,0,.079-.013.132-.013l2.51-.357h.04a.931.931,0,0,0,.793-1.03l-.211-1.664-.383-3.051c.3-.026.687-.066,1.123-.132a12.512,12.512,0,0,0,4.993-1.849,6.6,6.6,0,0,0,1.2-9.722Zm-3.646,4.993c-.026.106-.066.2-.092.291a1.939,1.939,0,0,1-1.281,1.162l-.2.04a4.142,4.142,0,0,1-1.849-.225.375.375,0,0,1-.238-.3l-.436-2.866a.375.375,0,0,1,.238-.409,4.415,4.415,0,0,1,2.444-.053,1.96,1.96,0,0,1,.819.436A1.852,1.852,0,0,1,662.947,76.21Z" transform="translate(-653.483 -69.008)" fill="#fff"/>
          </g>
        </g>
      </g>
    </g>
  </g>
</svg>
