<svg xmlns="http://www.w3.org/2000/svg" width="62" height="62" viewBox="0 0 62 62">
  <g id="그룹_858" data-name="그룹 858" transform="translate(-529 -30)">
    <g id="그룹_827" data-name="그룹 827">
      <g id="그룹_787" data-name="그룹 787" transform="translate(-747 -948)">
        <g id="사각형_882" data-name="사각형 882" transform="translate(1276 978)" fill="#fff" stroke="#f0f0f0" stroke-width="1.3">
          <rect width="62" height="62" rx="16" stroke="none"/>
          <rect x="0.65" y="0.65" width="60.7" height="60.7" rx="15.35" fill="none"/>
        </g>
        <path id="패스_297" data-name="패스 297" d="M677.739,105.087a12.2,12.2,0,0,1-.091,1.4,11.122,11.122,0,0,1-1.293,4c-4.986,8.808-12.612,7.68-12.612,7.68-13.777-.364-14.213-12.649-14.213-12.649a13.571,13.571,0,0,1,1.255-6.151,9.837,9.837,0,0,1,.856-1.6,14.02,14.02,0,0,1,22-1.947,16.146,16.146,0,0,1,1.419,1.783,20.463,20.463,0,0,1,1.875,3.458A10.174,10.174,0,0,1,677.739,105.087Z" transform="translate(642.539 907.034)" fill="#ffe2d2"/>
        <g id="그룹_662" data-name="그룹 662" transform="translate(642.539 907.034)">
          <path id="패스_298" data-name="패스 298" d="M658.549,104.625a1.987,1.987,0,0,1,.2.274.845.845,0,0,1,.119.508,1.714,1.714,0,0,1-.834,1.454.868.868,0,0,1-1.107-.3,1.392,1.392,0,0,1,.156-1.725c.018-.023.035-.048.051-.073h0A.879.879,0,0,1,658.549,104.625Z" fill="#513d39"/>
          <path id="패스_299" data-name="패스 299" d="M664.676,104.625a2.077,2.077,0,0,1,.2.274.845.845,0,0,1,.119.508,1.716,1.716,0,0,1-.834,1.454.868.868,0,0,1-1.107-.3,1.391,1.391,0,0,1,.156-1.725.716.716,0,0,0,.05-.073h0A.88.88,0,0,1,664.676,104.625Z" fill="#513d39"/>
        </g>
        <path id="패스_300" data-name="패스 300" d="M657.168,109a3.438,3.438,0,0,0,1.563,1.385,4.347,4.347,0,0,0,5.013-.909,5.494,5.494,0,0,0,.658-.864" transform="translate(642.539 907.034)" fill="none" stroke="#ff6445" stroke-linecap="round" stroke-linejoin="round" stroke-width="1.297"/>
        <path id="패스_301" data-name="패스 301" d="M676.435,101.921l.039-.02a2.425,2.425,0,0,1,3.41,2.537c-.164,1.236-.99,2.578-3.767,2.674Z" transform="translate(642.539 907.034)" fill="#ffe2d2"/>
        <path id="패스_302" data-name="패스 302" d="M650.889,102.015a1.03,1.03,0,0,0-.174-.094,2.547,2.547,0,0,0-3.411,3.021c.008.029.016.059.025.09a2.526,2.526,0,0,0,1.773,1.82,4,4,0,0,0,1.787-.024Z" transform="translate(642.539 907.034)" fill="#ffe2d2"/>
        <path id="패스_303" data-name="패스 303" d="M677.739,100.043a24.235,24.235,0,0,1-5.562,1.533l-1.218-1.281v1.428a53.918,53.918,0,0,1-11.1.635.693.693,0,0,1-.644-.544l-.719-3.072-2.159,3.192a.761.761,0,0,1-.584.339,40.824,40.824,0,0,1-6.009-.194,14.178,14.178,0,0,1,.844-2.263c5.541-8.795,18.55-9.533,25.519-1.829A18.631,18.631,0,0,1,677.739,100.043Z" transform="translate(642.539 907.034)"/>
        <g id="그룹_663" data-name="그룹 663" transform="translate(642.539 907.034)">
          <path id="패스_304" data-name="패스 304" d="M682.347,100.926c-12.466.649-32-1.024-36.53-1.432a.4.4,0,0,1-.209-.71,42.272,42.272,0,0,1,6.764-4.211.961.961,0,0,0,.4-.372,1.044,1.044,0,0,0,.141-.3,13.367,13.367,0,0,1,1.279-3.158,11.364,11.364,0,0,1,7.4-5.394,12.978,12.978,0,0,1,7.658.428,9.119,9.119,0,0,1,5.627,5.866,11.485,11.485,0,0,1,.569,3.3.7.7,0,0,0,.087.351.838.838,0,0,0,.438.429,28.507,28.507,0,0,1,6.628,4.525A.39.39,0,0,1,682.347,100.926Z" fill="#ffdf71"/>
          <path id="패스_305" data-name="패스 305" d="M675.526,95.29c-5.419.019-18.112-.783-22.758-1.089a1.044,1.044,0,0,0,.141-.3,13.367,13.367,0,0,1,1.279-3.158l20.682.9a11.485,11.485,0,0,1,.569,3.3A.7.7,0,0,0,675.526,95.29Z" fill="#ffba45" opacity="0.42"/>
        </g>
        <path id="패스_306" data-name="패스 306" d="M682.592,100.244a28.507,28.507,0,0,0-6.628-4.525.838.838,0,0,1-.438-.429.7.7,0,0,1-.087-.351,11.485,11.485,0,0,0-.569-3.3,9.119,9.119,0,0,0-5.627-5.866,12.978,12.978,0,0,0-7.658-.428,11.364,11.364,0,0,0-7.4,5.394,13.367,13.367,0,0,0-1.279,3.158,1.044,1.044,0,0,1-.141.3.961.961,0,0,1-.4.372,42.272,42.272,0,0,0-6.764,4.211.4.4,0,0,0,.209.71c.966.087,2.642.233,4.758.4a14.1,14.1,0,0,0-.622,1.834,2.576,2.576,0,0,0-2.649,3.214c.008.029.016.059.025.09a2.526,2.526,0,0,0,1.773,1.82,3.575,3.575,0,0,0,.609.068c.587,3.22,3.123,10.964,14.032,11.252,0,0,7.626,1.128,12.613-7.68a11,11,0,0,0,1.2-3.592,2.846,2.846,0,0,0,2.327-2.462,2.441,2.441,0,0,0-2.715-2.743c-.073-.21-.142-.421-.23-.627,1.894-.012,3.719-.054,5.408-.142A.39.39,0,0,0,682.592,100.244Z" transform="translate(642.539 907.034)" fill="none" stroke="#ffca71" stroke-miterlimit="10" stroke-width="1"/>
        <path id="패스_307" data-name="패스 307" d="M680.426,121.2c3.483-4.387-.266-10.927-5.843-11.451-.4-.038-.639-.04-.639-.04-7.567,0-7.941,6.761-7.941,6.761a7.489,7.489,0,0,0,5.351,7.222S676.913,125.627,680.426,121.2Z" transform="translate(642.539 907.034)" fill="#ff602e" stroke="#ff442e" stroke-miterlimit="10" stroke-width="1"/>
        <g id="그룹_666" data-name="그룹 666" transform="translate(642.539 907.034)">
          <g id="그룹_664" data-name="그룹 664">
            <path id="패스_308" data-name="패스 308" d="M670.706,120.45a.7.7,0,0,1-.484-1.2,74.256,74.256,0,0,1,6.444-5.573.7.7,0,1,1,.8,1.141,74.2,74.2,0,0,0-6.277,5.436A.7.7,0,0,1,670.706,120.45Z" fill="#fff"/>
          </g>
          <g id="그룹_665" data-name="그룹 665">
            <path id="패스_309" data-name="패스 309" d="M676.24,120.689a.7.7,0,0,1-.615-.368,39.427,39.427,0,0,0-4.054-6.035.7.7,0,1,1,1.064-.9,40.139,40.139,0,0,1,4.219,6.277.7.7,0,0,1-.614,1.027Z" fill="#fff"/>
          </g>
        </g>
      </g>
    </g>
  </g>
</svg>
