<svg xmlns="http://www.w3.org/2000/svg" width="160" height="62.529" viewBox="0 0 160 62.529">
  <g id="그룹_619" data-name="그룹 619" transform="translate(-101 -215.734)">
    <g id="그룹_599" data-name="그룹 599" transform="translate(112 267.36)">
      <rect id="사각형_877" data-name="사각형 877" width="160" height="10.903" rx="5.451" transform="translate(-11)" fill="#ffe4bf"/>
    </g>
    <path id="패스_195" data-name="패스 195" d="M601.463-172.962H549.038l-.425,2.892-4.159-.043-4.989,2.722s9.568,3.59,17.828-1.224h44.169Z" transform="translate(-391.53 438.016)" fill="#f9d3a5"/>
    <path id="패스_196" data-name="패스 196" d="M607.983-185.05a7.174,7.174,0,0,0-4.966-6.286,14.449,14.449,0,0,0,1.1-3.8c1.2-8.2-4.757-15.764-12.638-16.155a20.614,20.614,0,0,0-5.505.384c-.708-14.9-16.081-14.98-16.913-14.993-16.169.113-18.706,12.861-18.706,12.861l-.041.238c-17.787-1.456-17.561,15.969-17.561,15.969a27.025,27.025,0,0,0,.677,5.5s-5.357,3.35-4.067,8.4c0,0,.907,3.569,6.107,4.88a14.418,14.418,0,0,0,8-.274l2.845-.819,1.649-1.839h41.748c.7,1.671,2.6,3.651,7.724,3.31l6.815-1.085v-.6a8.859,8.859,0,0,0,1.473-.709A5.431,5.431,0,0,0,607.983-185.05Z" transform="translate(-389.319 447.008)" fill="#ffb68f"/>
    <g id="그룹_602" data-name="그룹 602" transform="translate(201.028 219.392)">
      <path id="패스_199" data-name="패스 199" d="M607.139-230.124a11.764,11.764,0,0,1,1.083,3.214.68.68,0,0,0,.562.574l1.932.336a.688.688,0,0,0,.754-.416l1.055-2.567a.686.686,0,0,0-.335-.88,13.015,13.015,0,0,0-4.382-1.241A.686.686,0,0,0,607.139-230.124Z" transform="translate(-607.072 231.106)" fill="#71c2cc"/>
    </g>
    <g id="그룹_603" data-name="그룹 603" transform="translate(220.287 245.19)">
      <path id="패스_200" data-name="패스 200" d="M632.131-197.829a7.2,7.2,0,0,1-.508,3,.4.4,0,0,0,.1.439l2.431,2.195a.4.4,0,0,0,.635-.152,10.466,10.466,0,0,0,.715-2.91.387.387,0,0,0-.118-.291l-2.583-2.586A.4.4,0,0,0,632.131-197.829Z" transform="translate(-631.595 198.256)" fill="#fa614e"/>
    </g>
    <g id="그룹_604" data-name="그룹 604" transform="translate(222.603 228.748)">
      <path id="패스_201" data-name="패스 201" d="M634.894-218.376a5.989,5.989,0,0,1,7.056.748.68.68,0,0,1,.016,1.06l-2.616,2.148a.679.679,0,0,1-.99-.144,7.457,7.457,0,0,0-3.4-2.6A.676.676,0,0,1,634.894-218.376Z" transform="translate(-634.544 219.193)" fill="#ffc05c"/>
    </g>
    <g id="그룹_605" data-name="그룹 605" transform="translate(151.33 215.734)">
      <path id="패스_202" data-name="패스 202" d="M543.939-233.009a3.488,3.488,0,0,1,1.787,3.111.333.333,0,0,0,.444.331,7.913,7.913,0,0,0,3.816-3.012.334.334,0,0,0,.012-.364c-.363-.6-1.551-2.45-2.544-2.8a.336.336,0,0,0-.3.037l-3.214,2.142A.332.332,0,0,0,543.939-233.009Z" transform="translate(-543.787 235.764)" fill="#a0c661"/>
    </g>
    <g id="그룹_606" data-name="그룹 606" transform="translate(131.031 240.435)">
      <path id="패스_203" data-name="패스 203" d="M518.508-204.239c.462.96,1.723,3.145,3.785,3.524a.476.476,0,0,1,.384.6l-.918,3.052a.471.471,0,0,1-.708.259,9.234,9.234,0,0,1-3.059-3.232.477.477,0,0,1-.05-.258l.325-3.9A.127.127,0,0,1,518.508-204.239Z" transform="translate(-517.94 204.31)" fill="#fa614e"/>
    </g>
    <g id="그룹_607" data-name="그룹 607" transform="translate(126.065 221.105)">
      <path id="패스_204" data-name="패스 204" d="M514.036-228.763c.52.582,1.465,1.616,2.377,2.485a.485.485,0,0,1,0,.7,9.931,9.931,0,0,0-2.534,4.028.487.487,0,0,1-.871.133,7.919,7.919,0,0,1-1.393-3.853.518.518,0,0,1,.023-.166,12.973,12.973,0,0,1,1.633-3.279A.487.487,0,0,1,514.036-228.763Z" transform="translate(-511.616 228.925)" fill="#ffc05c"/>
    </g>
    <g id="그룹_608" data-name="그룹 608" transform="translate(174.962 250.129)">
      <path id="패스_205" data-name="패스 205" d="M576.758-186.87a.941.941,0,0,1-.354-.069l-1.933-.781a.944.944,0,0,1-.554-.616.947.947,0,0,1,.145-.816l1.769-2.427a.944.944,0,0,1,1.319-.207.944.944,0,0,1,.207,1.319l-1.056,1.449.811.328a.944.944,0,0,1,.522,1.229A.945.945,0,0,1,576.758-186.87Z" transform="translate(-573.88 191.967)" fill="#451815"/>
    </g>
    <g id="그룹_609" data-name="그룹 609" transform="translate(166.282 256.588)">
      <path id="패스_206" data-name="패스 206" d="M575.853-177.777a20.8,20.8,0,0,1-11.069-3.159,15.383,15.383,0,0,1-1.62-1.139.945.945,0,0,1-.116-1.33.943.943,0,0,1,1.329-.117h0a14.306,14.306,0,0,0,1.409.986,19.174,19.174,0,0,0,14.35,2.4,21.8,21.8,0,0,0,7.048-2.7.946.946,0,0,1,1.3.288.945.945,0,0,1-.288,1.3,23.654,23.654,0,0,1-7.661,2.948A21.941,21.941,0,0,1,575.853-177.777Z" transform="translate(-562.827 183.742)" fill="#e75600"/>
    </g>
    <g id="그룹_610" data-name="그룹 610" transform="translate(199.371 259.497)">
      <path id="패스_207" data-name="패스 207" d="M612.825-169.349a14.33,14.33,0,0,1-3.973-.559l-.136-.039a5.164,5.164,0,0,1-3.754-4.994,5.053,5.053,0,0,1,3.558-4.969c.115-.036.233-.071.355-.105a.629.629,0,0,1,.774.439.629.629,0,0,1-.439.774c-.105.029-.207.06-.306.091a3.78,3.78,0,0,0-2.683,3.755,3.94,3.94,0,0,0,2.851,3.8l.129.038a13.111,13.111,0,0,0,4.455.484c3.6-.224,6.246-.814,7.859-1.753a.63.63,0,0,1,.861.228.63.63,0,0,1-.228.861c-1.809,1.053-4.562,1.681-8.415,1.921Q613.278-169.349,612.825-169.349Z" transform="translate(-604.962 180.038)" fill="#fff"/>
    </g>
    <g id="그룹_612" data-name="그룹 612" transform="translate(139.253 259.216)">
      <path id="패스_209" data-name="패스 209" d="M538.674-168.959a15.792,15.792,0,0,1-3.678-.434c-5.5-1.317-6.524-4.936-6.566-5.089a.63.63,0,0,1,.446-.771.629.629,0,0,1,.77.446c.034.12.913,3.056,5.643,4.19a14.49,14.49,0,0,0,7.665-.248,8.981,8.981,0,0,0,3.73-2.058,3.614,3.614,0,0,0,1.037-3.426c-.6-2.3-3.448-2.786-5.73-2.786a.63.63,0,0,1-.629-.63.629.629,0,0,1,.629-.629c4.938,0,6.5,2.027,6.949,3.727a4.877,4.877,0,0,1-1.366,4.634,10.2,10.2,0,0,1-4.245,2.37A15.721,15.721,0,0,1,538.674-168.959Z" transform="translate(-528.409 180.395)" fill="#fff"/>
    </g>
    <g id="그룹_613" data-name="그룹 613" transform="translate(182.954 249.182)">
      <path id="패스_210" data-name="패스 210" d="M591.952-184.044a15.131,15.131,0,0,1,1.176-3.243,6.13,6.13,0,0,0,.7-1.9,3.344,3.344,0,0,0-1.879-3.683s-4.589-2.053-7.291,4.512a7.62,7.62,0,0,0-.484,4.293,6.073,6.073,0,0,0,.966,2.375" transform="translate(-584.057 193.173)" fill="#e75600"/>
    </g>
    <g id="그룹_614" data-name="그룹 614" transform="translate(186.263 252.162)">
      <path id="패스_211" data-name="패스 211" d="M589.342-182.6a.944.944,0,0,1-.919-.732,7.08,7.08,0,0,1,1.232-5.71.944.944,0,0,1,1.331-.109.943.943,0,0,1,.109,1.33,5.27,5.27,0,0,0-.832,4.064.944.944,0,0,1-.708,1.132A.948.948,0,0,1,589.342-182.6Z" transform="translate(-588.271 189.378)" fill="#d74700"/>
    </g>
    <g id="그룹_615" data-name="그룹 615" transform="translate(171.163 233.989)">
      <path id="패스_212" data-name="패스 212" d="M579.366-204.616a5.487,5.487,0,0,1-3.743-1.227,4.72,4.72,0,0,1-.561.075,10.389,10.389,0,0,1-5.572-1.432.945.945,0,0,1-.308-1.3.946.946,0,0,1,1.3-.309h0a8.947,8.947,0,0,0,3.894,1.17,4.029,4.029,0,0,1,.478-3.656,3.226,3.226,0,0,1,.885-.86,2.309,2.309,0,0,1,2.394-.058,2.381,2.381,0,0,1,1.216,2.146c0,.042,0,.087-.006.132a4.392,4.392,0,0,1-1.663,3.141,6.373,6.373,0,0,0,3.385.112.943.943,0,0,1,1.1.749.944.944,0,0,1-.749,1.106A10.949,10.949,0,0,1,579.366-204.616Zm-2.39-6.016a.4.4,0,0,0-.218.065,1.352,1.352,0,0,0-.363.361,2.123,2.123,0,0,0-.162,2.128,2.537,2.537,0,0,0,1.223-1.977l0-.068a.5.5,0,0,0-.258-.448A.463.463,0,0,0,576.976-210.632Z" transform="translate(-569.042 212.519)" fill="#451815"/>
    </g>
    <g id="그룹_616" data-name="그룹 616" transform="translate(170.076 245.963)">
      <path id="패스_213" data-name="패스 213" d="M570.963-196.74a3.838,3.838,0,0,1,.356.489,1.519,1.519,0,0,1,.213.908,3.067,3.067,0,0,1-1.49,2.6,1.552,1.552,0,0,1-1.977-.54,2.486,2.486,0,0,1,.28-3.08,1.238,1.238,0,0,0,.09-.131h0A1.571,1.571,0,0,1,570.963-196.74Z" transform="translate(-567.658 197.272)" fill="#451815"/>
    </g>
    <g id="그룹_617" data-name="그룹 617" transform="translate(181.015 245.963)">
      <path id="패스_214" data-name="패스 214" d="M584.892-196.74a3.839,3.839,0,0,1,.356.489,1.519,1.519,0,0,1,.213.908,3.067,3.067,0,0,1-1.49,2.6,1.552,1.552,0,0,1-1.977-.54,2.486,2.486,0,0,1,.28-3.08,1.247,1.247,0,0,0,.09-.131h0A1.571,1.571,0,0,1,584.892-196.74Z" transform="translate(-581.587 197.272)" fill="#451815"/>
    </g>
  </g>
</svg>
