<svg xmlns="http://www.w3.org/2000/svg" width="62" height="62" viewBox="0 0 62 62">
  <g id="그룹_857" data-name="그룹 857" transform="translate(-458 -112)">
    <g id="그룹_819" data-name="그룹 819" transform="translate(-747 -866)">
      <g id="사각형_891" data-name="사각형 891" transform="translate(1205 978)" fill="#f7f7f7" stroke="#f0f0f0" stroke-width="1.3">
        <rect width="62" height="62" rx="16" stroke="none"/>
        <rect x="0.65" y="0.65" width="60.7" height="60.7" rx="15.35" fill="none"/>
      </g>
      <g id="그룹_659" data-name="그룹 659" transform="translate(604.673 899.973)">
        <path id="패스_290" data-name="패스 290" d="M614.878,118.631c3.787-1.995,19.894-10.453,31.025-15.935a1.034,1.034,0,0,1,1.407.523l1.721,3.979a1.034,1.034,0,0,1-.454,1.324c-4.486,2.433-25.786,13.966-30.422,16.167a1.025,1.025,0,0,1-1.237-.278,17.474,17.474,0,0,1-2.509-4.453A1.044,1.044,0,0,1,614.878,118.631Z" fill="#eeeeef"/>
        <path id="패스_291" data-name="패스 291" d="M648.58,108.52c-.76.41-2.01,1.09-3.58,1.94-7.67,4.14-23,12.4-26.85,14.23a1.017,1.017,0,0,1-1.23-.28,17.145,17.145,0,0,1-2.51-4.45,1.041,1.041,0,0,1,.47-1.33c3.4-1.79,16.72-8.78,27.46-14.16,1.23-.61,2.42-1.21,3.56-1.77a1.026,1.026,0,0,1,1.41.52l1.72,3.98A1.034,1.034,0,0,1,648.58,108.52Z" fill="#eeeeef"/>
        <path id="패스_292" data-name="패스 292" d="M648.58,108.52c-.76.41-2.01,1.09-3.58,1.94-3.46,1.87-8.46,4.57-13.28,7.14-5.87,3.14-11.45,6.08-13.57,7.09a1.017,1.017,0,0,1-1.23-.28,17.145,17.145,0,0,1-2.51-4.45,1.041,1.041,0,0,1,.47-1.33c2.04-1.08,7.68-4.03,14.18-7.39,4.31-2.23,9-4.63,13.28-6.77,1.23-.61,2.42-1.21,3.56-1.77a1.026,1.026,0,0,1,1.41.52l1.72,3.98A1.034,1.034,0,0,1,648.58,108.52Z" fill="#f4f4f4"/>
        <path id="패스_294" data-name="패스 294" d="M631.72,117.6c-5.87,3.14-11.45,6.08-13.57,7.09a1.017,1.017,0,0,1-1.23-.28,17.145,17.145,0,0,1-2.51-4.45,1.041,1.041,0,0,1,.47-1.33c2.04-1.08,7.68-4.03,14.18-7.39Z" fill="#e5bc80"/>
        <path id="패스_295" data-name="패스 295" d="M648.58,108.52c-.76.41-2.01,1.09-3.58,1.94l-2.7-5.94.04-.05c1.23-.61,2.42-1.21,3.56-1.77a1.026,1.026,0,0,1,1.41.52l1.72,3.98A1.034,1.034,0,0,1,648.58,108.52Z" fill="#ff633d"/>
        <path id="패스_296" data-name="패스 296" d="M642.1,100.969a4.288,4.288,0,0,0-.779-5.878l-.041-.031a4.012,4.012,0,0,1-1.42-3.724.267.267,0,0,0-.464-.218,8.226,8.226,0,0,0-1.042,1.48,4.221,4.221,0,0,0,1.7,5.534,2.918,2.918,0,0,1,1.39,3,.238.238,0,0,0,.431.16Z" fill="#f4f4f4" stroke="#ebebeb" stroke-width="1"/>
        <path id="패스_293" data-name="패스 293" d="M649.03,107.2l-1.72-3.98a1.026,1.026,0,0,0-1.41-.52c-1.14.56-2.33,1.16-3.56,1.77-4.28,2.14-8.97,4.54-13.28,6.77-6.5,3.36-12.14,6.31-14.18,7.39a1.041,1.041,0,0,0-.47,1.33,17.145,17.145,0,0,0,2.51,4.45,1.017,1.017,0,0,0,1.23.28c2.12-1.01,7.7-3.95,13.57-7.09,4.82-2.57,9.82-5.27,13.28-7.14,1.57-.85,2.82-1.53,3.58-1.94A1.034,1.034,0,0,0,649.03,107.2Z" fill="none" stroke="#ebebeb" stroke-miterlimit="10" stroke-width="1"/>
      </g>
    </g>
  </g>
</svg>
