<svg xmlns="http://www.w3.org/2000/svg" width="63" height="62" viewBox="0 0 63 62">
  <g id="그룹_846" data-name="그룹 846" transform="translate(-99 -30)">
    <g id="그룹_821" data-name="그룹 821">
      <g id="사각형_879" data-name="사각형 879" transform="translate(99 30)" fill="#fff" stroke="#f0f0f0" stroke-width="1.3">
        <rect width="63" height="62" rx="16" stroke="none"/>
        <rect x="0.65" y="0.65" width="61.7" height="60.7" rx="15.35" fill="none"/>
      </g>
      <path id="패스_242" data-name="패스 242" d="M612.8,63.9c3.624-.172,14.51-1.076,26.034-2.51a.94.94,0,0,1,1.105.88V95.1a.908.908,0,0,1-.845.888c-3.581.344-17.659,1.711-25.173,2.692a.926.926,0,0,1-1.072-.875c-.034-4.071-.207-19.611-.942-32.974A.9.9,0,0,1,612.8,63.9Z" transform="translate(-496.306 -17.842)" fill="#dedede"/>
      <g id="그룹_641" data-name="그룹 641" transform="translate(127.723 43.538)" opacity="0.28">
        <path id="패스_244" data-name="패스 244" d="M636.294,61.389c-2.807.349-5.572.666-8.207.95l-6.593,35.169c6.342-.679,12.8-1.3,15.059-1.522a.908.908,0,0,0,.846-.888V62.269A.94.94,0,0,0,636.294,61.389Z" transform="translate(-621.494 -61.38)" fill="#fff"/>
      </g>
      <g id="그룹_644" data-name="그룹 644" transform="translate(122.705 55.082)">
        <path id="패스_245" data-name="패스 245" d="M626.925,70.9a7.061,7.061,0,0,0-9.4,6.671,6.987,6.987,0,0,0,3.146,5.74,7.288,7.288,0,0,0,7.381.417,6.093,6.093,0,0,0,3.272-5.2S631.821,72.633,626.925,70.9Z" transform="translate(-617.525 -70.51)" fill="#fff"/>
        <path id="패스_246" data-name="패스 246" d="M626.025,72a5.447,5.447,0,0,0-7.251,5.147A5.39,5.39,0,0,0,621.2,81.57a5.623,5.623,0,0,0,5.7.321,4.7,4.7,0,0,0,2.524-4.009S629.8,73.33,626.025,72Z" transform="translate(-617.195 -70.197)" fill="#c3c3c3"/>
        <g id="그룹_642" data-name="그룹 642" transform="translate(4.808 5.563)">
          <path id="패스_247" data-name="패스 247" d="M622.2,77.984a.547.547,0,0,1-.549-.446l-.315-2.029a.527.527,0,0,1,.469-.59.549.549,0,0,1,.63.44l.316,2.029a.529.529,0,0,1-.47.592A.566.566,0,0,1,622.2,77.984Z" transform="translate(-621.327 -74.91)" fill="#7c7c7c"/>
        </g>
        <g id="그룹_643" data-name="그룹 643" transform="translate(7.581 5.364)">
          <path id="패스_248" data-name="패스 248" d="M624.391,77.824a.544.544,0,0,1-.549-.445l-.316-2.029a.527.527,0,0,1,.469-.59.552.552,0,0,1,.631.44l.315,2.029a.527.527,0,0,1-.469.59A.592.592,0,0,1,624.391,77.824Z" transform="translate(-623.521 -74.753)" fill="#7c7c7c"/>
        </g>
      </g>
      <path id="패스_243" data-name="패스 243" d="M612.788,63.938c3.624-.173,14.509-1.076,26.034-2.511a.941.941,0,0,1,1.1.881V95.135" transform="translate(-496.072 -17.832)" fill="none" stroke="#b6bcbc" stroke-linecap="round" stroke-linejoin="round" stroke-width="1"/>
    </g>
  </g>
</svg>
